<?xml version="1.0" ?>
<mxfile host="app.diagrams.net">
  <diagram name="MER">
    <mxGraphModel dx="1120" dy="720" grid="1" gridSize="10" guides="1" tooltips="1" connect="1" arrows="1" fold="1" page="1" pageScale="1" pageWidth="827" pageHeight="1169" math="0" shadow="0">
      <root>
        <mxCell id="0"/>
        <mxCell id="1" parent="0"/>
        <mxCell id="cadastro" value="cadastro&lt;br&gt;id_nome (PK)&lt;br&gt;nomeCompleto&lt;br&gt;gmail (UNIQUE)&lt;br&gt;telefone&lt;br&gt;genero&lt;br&gt;senha&lt;br&gt;data_cadastro" style="shape=swimlane;verticalAlign=top;" vertex="1" parent="1">
          <mxGeometry x="20" y="20" width="200" height="170" as="geometry"/>
        </mxCell>
        <mxCell id="logins" value="logins&lt;br&gt;id (PK)&lt;br&gt;id_usuario (FK)&lt;br&gt;senha" style="shape=swimlane;verticalAlign=top;" vertex="1" parent="1">
          <mxGeometry x="300" y="20" width="200" height="90" as="geometry"/>
        </mxCell>
        <mxCell id="noticias" value="noticias&lt;br&gt;id (PK)&lt;br&gt;titulo&lt;br&gt;descricao&lt;br&gt;categoria&lt;br&gt;imagem&lt;br&gt;imagemCapa&lt;br&gt;data_publicacao" style="shape=swimlane;verticalAlign=top;" vertex="1" parent="1">
          <mxGeometry x="20" y="250" width="200" height="170" as="geometry"/>
        </mxCell>
        <mxCell id="tokens_recuperacao" value="tokens_recuperacao&lt;br&gt;id (PK)&lt;br&gt;email (UNIQUE)&lt;br&gt;token&lt;br&gt;expiracao" style="shape=swimlane;verticalAlign=top;" vertex="1" parent="1">
          <mxGeometry x="300" y="250" width="200" height="110" as="geometry"/>
        </mxCell>
        <mxCell id="r1" style="endArrow=none;" edge="1" parent="1" source="logins" target="cadastro">
          <mxGeometry relative="1" as="geometry"/>
        </mxCell>
        <mxCell id="r2" style="endArrow=none;" edge="1" parent="1" source="tokens_recuperacao" target="cadastro">
          <mxGeometry relative="1" as="geometry"/>
        </mxCell>
      </root>
    </mxGraphModel>
  </diagram>
</mxfile>
